<svg width="1791" height="620" viewBox="0 0 1791 620" fill="none" xmlns="http://www.w3.org/2000/svg">
<path d="M118.306 0.614593C101.978 4.0923 95.3358 23.822 103.478 37.4716C108.816 46.4207 119.73 50.5884 129.797 48.4473C152.973 43.5183 156.369 9.50535 133.388 1.35256C128.965 -0.216658 122.891 -0.361918 118.306 0.614593Z" fill="#39DC78"/>
<path d="M0.764742 179H33.5769V94.7618C67.8743 94.7618 102.133 93.9804 136.388 94.0356C162.573 94.0778 188.891 94.7618 215.137 94.7618C233.594 94.7618 252.918 93.1148 271.282 94.8853C290.524 96.7392 310.911 104.396 326.698 115.413C338.221 123.455 348.613 134.449 354.939 147.048C359.863 156.855 362.224 167.387 366.073 177.548C374.406 172.928 382.199 167.082 390.135 161.813C392.76 160.071 397.473 158.032 398.73 154.968C399.586 152.88 398.204 150.405 397.419 148.5C395.135 142.959 392.556 137.688 389.507 132.524C376.538 110.552 356.918 93.8519 334.719 81.5894C318.398 72.5738 299.375 65.2937 280.761 63.0171C276.412 62.4855 272 63.0418 267.637 62.7448C251.654 61.6541 235.554 62.0832 219.512 62.0832C174.307 62.0832 129.034 62.8094 83.8888 62.8094C64.4443 62.8094 45.0006 62.7782 25.5561 62.8094C18.4115 62.821 6.90032 62.8617 1.81006 68.7736C-0.404972 71.3458 0.0358028 74.9056 0.0355841 78.0594V97.6666C0.0355841 124.748 0.764742 151.87 0.764742 179Z" fill="#0F2106"/>
<path d="M240.739 355V330.237C240.739 327.643 241.681 322.649 239.988 320.478C238.298 318.31 233.018 318.512 230.514 317.938C222.732 316.154 215.139 313.666 207.872 310.348C187.574 301.08 169.826 285.031 159.164 265.417C150.961 250.329 144.663 233.085 142.994 215.892C141.629 201.827 142.87 187.055 142.87 172.922V94.2638H118.038C115.459 94.2638 110.401 93.3163 108.253 95.0125C106.535 96.3694 107.083 99.641 107.083 101.547V119.755V193.314C107.083 213.224 107.557 233.128 113.677 252.308C124.635 286.652 148.574 318.938 180.119 336.885C191.544 343.385 203.241 347.016 215.906 350.173C223.943 352.177 232.414 354.829 240.739 355Z" fill="#0F2106"/>
<path d="M398.975 155C392.11 160.904 384.001 165.562 376.5 170.608C373.704 172.489 368.692 174.656 367.16 177.815C365.374 181.499 368.518 189.091 369.045 193.044C370.496 203.914 371.06 215.064 369.768 225.967C368.21 239.11 365.014 252.127 359.122 264.011C342.906 296.717 309.613 313.736 275 318.151V354C286.769 353.967 298.736 350.175 309.8 346.44C330.349 339.502 350.245 327.796 365.614 312.287C390.521 287.154 403.742 252.248 406.289 217.188C407.422 201.597 407.528 185.732 404.134 170.364C403.041 165.416 402.366 158.883 398.975 155Z" fill="#0F2106"/>
<path d="M143.55 178V215.053H240.648L241.378 348.004L240.648 403.945H34.7702V215.779H108.507L107.777 179.454H1.18727V358.175V406.125C1.18727 414.514 -0.080193 423.856 3.97962 431.553C9.17847 441.409 17.7644 440.998 27.4696 440.998H64.7028H209.985H239.188C249.601 440.998 261.231 440.581 269.821 433.906C275.788 429.27 274.961 423.075 274.961 416.296V377.791V234.668V207.061C274.961 198.141 274.174 188.068 266.919 181.789C262.393 177.871 257.244 178 251.599 178H232.617H143.55Z" fill="#39DC78"/>
<path d="M830 49.6293C822.91 50.7443 816.01 53.3623 810 57.2913C804.36 60.9803 799.61 65.6503 795.77 71.1903C781.88 91.2853 785.22 120.377 803.04 137.016C814.49 147.71 830.6 152.09 846 149.89C852.4 148.976 858.44 146.55 864 143.313C869.75 139.964 874.55 135.509 878.52 130.189C905.04 94.6463 874.08 42.6913 830 49.6293Z" fill="#39DC78"/>
<path d="M968 66.1905V192.191V226.191C968 230.478 966.77 237.148 969.03 240.978C971.87 245.8 980.31 248.509 985 251.192C999.05 259.219 1013.15 268.792 1028 275.191C1033.7 267.715 1040.65 260.959 1049 256.514C1056.34 252.606 1064.78 250.728 1073 250.106C1084.3 249.252 1095.65 250.814 1106 255.68C1152.87 277.712 1151.81 350.211 1108 374.326C1097.7 379.994 1086.52 381.209 1075 381.191C1061.48 381.169 1048.31 376.392 1037 369.102C1022.81 359.955 1011.46 345.701 1005 330.191C998.3 331.195 992.18 334.686 986 337.341C975.3 341.938 964.6 346.587 954 351.422C949.68 353.395 939.48 355.562 937.64 360.405C935.39 366.342 942.18 377.049 944.75 382.191C955.33 403.335 971.87 419.832 992 431.987C1014.16 445.367 1039.42 451.487 1065 453.28C1094.54 455.351 1125.27 452.297 1152 438.407C1228.71 398.549 1247.67 278.485 1182 219.362C1155.82 195.791 1117.08 183.878 1082 186.28C1067.06 187.304 1053.48 190.841 1039 194.191V138.191H1181V66.1905H968ZM1269 106.191C1270.84 112.918 1274.32 118.859 1277.14 125.191C1283.86 140.27 1291.66 154.961 1298 170.191C1310.39 167.983 1324.18 158.508 1335 152.191V377.191H1286V448.191H1463V377.191H1413V66.1905H1373C1366.58 66.1905 1359.3 65.2415 1353 66.5805C1343.23 68.6565 1333.95 75.1835 1325 79.4095C1306.29 88.2465 1287.7 97.3295 1269 106.191ZM1537 66.1905V192.191V226.191C1537 230.478 1535.77 237.148 1538.03 240.978C1540.93 245.908 1550.12 249.203 1555 251.885C1568.88 259.507 1582.47 268.931 1597 275.191C1602.73 267.587 1609.53 261.023 1618 256.514C1625.34 252.606 1633.78 250.728 1642 250.106C1653.62 249.228 1665.47 250.881 1676 256.162C1721.7 279.069 1720.64 350.289 1677 374.326C1666.71 379.996 1655.52 381.209 1644 381.191C1630.48 381.169 1617.24 376.503 1606 369.112C1591.84 359.803 1580.49 345.789 1574 330.191C1567.3 331.195 1561.18 334.686 1555 337.341C1544.3 341.938 1533.6 346.587 1523 351.422C1518.68 353.395 1508.48 355.562 1506.64 360.405C1504.39 366.342 1511.18 377.049 1513.75 382.191C1524.35 403.393 1540.95 419.755 1561 432.126C1591.6 451.011 1629.85 455.855 1665 453.28C1683.79 451.902 1703.18 447.698 1720 438.871C1739.34 428.721 1755.89 414.507 1767.92 396.191C1802.16 344.089 1798.85 262.446 1751 219.362C1724.82 195.791 1686.08 183.878 1651 186.28C1636.06 187.304 1622.48 190.841 1608 194.191V138.191H1750V66.1905H1537Z" fill="#0F2106"/>
<path fill-rule="evenodd" clip-rule="evenodd" d="M471 448.19V66.1904H583H583.257C621.161 66.1903 658.312 66.1902 690 90.4264C717.466 111.434 730.73 144.528 733.089 178.19C736.218 222.83 724.273 270.324 685 296.671C651.378 319.227 610.329 318.348 570.959 317.506C563.56 317.347 556.22 317.19 549 317.19V448.19H471ZM549 245.19V138.19H590C604.526 138.19 618.683 138.282 632 144.999C665.869 162.084 667.157 217.254 635 236.725C621.314 245.012 605.444 245.19 590 245.19H549Z" fill="#39DC78"/>
<path d="M798 181.19V448.19H877V181.19H798Z" fill="#39DC78"/>
<path d="M83.6411 591.543L81.9692 593.633C77.1626 599.241 70.1268 602.045 60.8618 602.045C52.6418 602.045 46.1807 599.328 41.4785 593.895C36.8112 588.426 34.4253 580.711 34.3208 570.75V555.807C34.3208 545.149 36.4455 537.173 40.6948 531.878C44.979 526.549 51.3704 523.885 59.8691 523.885C67.1139 523.885 72.7739 525.905 76.8491 529.945C80.9591 533.986 83.2231 539.75 83.6411 547.239H74.0801C73.6969 542.502 72.3734 538.81 70.1094 536.163C67.8802 533.481 64.4842 532.14 59.9214 532.14C54.453 532.14 50.4474 533.933 47.9048 537.521C45.3621 541.074 44.0386 546.769 43.9341 554.605V570.123C43.9341 577.785 45.397 583.672 48.3228 587.782C51.2485 591.857 55.4456 593.895 60.9141 593.895C66.069 593.895 69.9875 592.641 72.6694 590.133L74.0801 588.827V571.272H60.1826V563.122H83.6411V591.543ZM109.242 601H99.6807V524.93H109.242V601ZM147.747 586.319L165.145 524.93H175.646L151.979 601H143.62L120.004 524.93H130.454L147.747 586.319ZM195.97 601H186.409V524.93H195.97V601ZM262.427 601H252.814L222.354 542.38V601H212.741V524.93H222.354L252.918 583.811V524.93H262.427V601ZM326.585 591.543L324.914 593.633C320.107 599.241 313.071 602.045 303.806 602.045C295.586 602.045 289.125 599.328 284.423 593.895C279.756 588.426 277.37 580.711 277.265 570.75V555.807C277.265 545.149 279.39 537.173 283.639 531.878C287.923 526.549 294.315 523.885 302.813 523.885C310.058 523.885 315.718 525.905 319.793 529.945C323.903 533.986 326.167 539.75 326.585 547.239H317.024C316.641 542.502 315.318 538.81 313.054 536.163C310.825 533.481 307.429 532.14 302.866 532.14C297.397 532.14 293.392 533.933 290.849 537.521C288.306 541.074 286.983 546.769 286.878 554.605V570.123C286.878 577.785 288.341 583.672 291.267 587.782C294.193 591.857 298.39 593.895 303.858 593.895C309.013 593.895 312.932 592.641 315.614 590.133L317.024 588.827V571.272H303.127V563.122H326.585V591.543ZM386.564 563.122L402.133 524.93H412.948L391.318 572.63V601H381.757V572.63L360.127 524.93H370.995L386.564 563.122ZM470.785 569.652C470.785 580.032 468.573 588.026 464.149 593.633C459.726 599.241 453.439 602.045 445.289 602.045C437.452 602.045 431.252 599.328 426.689 593.895C422.161 588.426 419.81 580.711 419.636 570.75V556.434C419.636 546.264 421.882 538.305 426.375 532.558C430.869 526.776 437.138 523.885 445.184 523.885C453.195 523.885 459.43 526.654 463.888 532.192C468.381 537.695 470.68 545.567 470.785 555.807V569.652ZM461.224 556.33C461.224 548.284 459.9 542.31 457.253 538.409C454.641 534.473 450.618 532.505 445.184 532.505C439.925 532.505 435.937 534.491 433.22 538.461C430.538 542.432 429.179 548.284 429.145 556.016V569.652C429.145 577.42 430.486 583.341 433.167 587.416C435.884 591.491 439.925 593.529 445.289 593.529C450.653 593.529 454.623 591.648 457.201 587.886C459.778 584.125 461.119 578.36 461.224 570.593V556.33ZM530.92 524.93V579.004C530.85 586.214 528.76 591.857 524.65 595.932C520.54 600.007 514.811 602.045 507.461 602.045C499.938 602.045 494.191 600.06 490.22 596.089C486.25 592.083 484.229 586.389 484.16 579.004V524.93H493.668V578.639C493.668 583.759 494.748 587.59 496.908 590.133C499.102 592.641 502.62 593.895 507.461 593.895C512.338 593.895 515.856 592.641 518.015 590.133C520.209 587.59 521.307 583.759 521.307 578.639V524.93H530.92ZM590.115 533.185H570.104V601H560.543V533.185H540.585V524.93H590.115V533.185ZM651.138 601H641.525V565.838H610.909V601H601.348V524.93H610.909V557.636H641.525V524.93H651.138V601ZM734.627 533.185H714.617V601H705.056V533.185H685.098V524.93H734.627V533.185ZM795.651 601H786.038V565.838H755.421V601H745.86V524.93H755.421V557.636H786.038V524.93H795.651V601ZM848.681 565.838H821.774V592.797H853.122V601H812.213V524.93H852.599V533.185H821.774V557.636H848.681V565.838ZM1259.28 533.185H1239.27V601H1229.71V533.185H1209.75V524.93H1259.28V533.185ZM1318.53 569.652C1318.53 580.032 1316.32 588.026 1311.89 593.633C1307.47 599.241 1301.18 602.045 1293.03 602.045C1285.2 602.045 1279 599.328 1274.43 593.895C1269.91 588.426 1267.56 580.711 1267.38 570.75V556.434C1267.38 546.264 1269.63 538.305 1274.12 532.558C1278.61 526.776 1284.88 523.885 1292.93 523.885C1300.94 523.885 1307.17 526.654 1311.63 532.192C1316.13 537.695 1318.43 545.567 1318.53 555.807V569.652ZM1308.97 556.33C1308.97 548.284 1307.65 542.31 1305 538.409C1302.39 534.473 1298.36 532.505 1292.93 532.505C1287.67 532.505 1283.68 534.491 1280.96 538.461C1278.28 542.432 1276.92 548.284 1276.89 556.016V569.652C1276.89 577.42 1278.23 583.341 1280.91 587.416C1283.63 591.491 1287.67 593.529 1293.03 593.529C1298.4 593.529 1302.37 591.648 1304.95 587.886C1307.52 584.125 1308.86 578.36 1308.97 570.593V556.33ZM1391.1 581.773C1391.1 577.977 1390.07 575.069 1388.02 573.048C1385.96 571.028 1382.25 569.06 1376.89 567.145C1371.52 565.229 1367.41 563.226 1364.56 561.136C1361.74 559.012 1359.61 556.608 1358.18 553.926C1356.79 551.209 1356.09 548.11 1356.09 544.626C1356.09 538.601 1358.1 533.637 1362.1 529.736C1366.14 525.835 1371.42 523.885 1377.93 523.885C1382.39 523.885 1386.36 524.895 1389.85 526.915C1393.33 528.9 1396.01 531.669 1397.89 535.222C1399.77 538.775 1400.71 542.676 1400.71 546.925H1391.1C1391.1 542.223 1389.97 538.583 1387.7 536.006C1385.44 533.428 1382.18 532.14 1377.93 532.14C1374.07 532.14 1371.07 533.219 1368.95 535.379C1366.82 537.538 1365.76 540.569 1365.76 544.47C1365.76 547.674 1366.91 550.356 1369.21 552.516C1371.51 554.675 1375.06 556.608 1379.87 558.315C1387.36 560.788 1392.7 563.836 1395.91 567.458C1399.15 571.08 1400.77 575.817 1400.77 581.669C1400.77 587.834 1398.76 592.78 1394.76 596.507C1390.75 600.199 1385.3 602.045 1378.4 602.045C1373.98 602.045 1369.89 601.087 1366.13 599.171C1362.4 597.221 1359.46 594.504 1357.3 591.021C1355.17 587.503 1354.11 583.48 1354.11 578.952H1363.72C1363.72 583.654 1365.03 587.312 1367.64 589.924C1370.29 592.536 1373.88 593.842 1378.4 593.842C1382.62 593.842 1385.79 592.763 1387.91 590.603C1390.04 588.444 1391.1 585.5 1391.1 581.773ZM1458.71 524.93V579.004C1458.64 586.214 1456.55 591.857 1452.44 595.932C1448.33 600.007 1442.6 602.045 1435.25 602.045C1427.72 602.045 1421.98 600.06 1418.01 596.089C1414.04 592.083 1412.02 586.389 1411.95 579.004V524.93H1421.45V578.639C1421.45 583.759 1422.53 587.59 1424.69 590.133C1426.89 592.641 1430.41 593.895 1435.25 593.895C1440.12 593.895 1443.64 592.641 1445.8 590.133C1448 587.59 1449.09 583.759 1449.09 578.639V524.93H1458.71ZM1521.14 576.862C1520.72 585.013 1518.42 591.247 1514.24 595.566C1510.1 599.885 1504.23 602.045 1496.64 602.045C1489.01 602.045 1482.95 599.154 1478.46 593.372C1473.96 587.555 1471.72 579.684 1471.72 569.757V555.964C1471.72 546.072 1474.01 538.252 1478.61 532.505C1483.24 526.758 1489.55 523.885 1497.52 523.885C1504.87 523.885 1510.55 526.097 1514.56 530.52C1518.6 534.909 1520.79 541.196 1521.14 549.381H1511.47C1511.06 543.181 1509.75 538.757 1507.56 536.11C1505.36 533.463 1502.02 532.14 1497.52 532.14C1492.34 532.14 1488.35 534.177 1485.56 538.252C1482.77 542.293 1481.38 548.231 1481.38 556.068V570.018C1481.38 577.716 1482.67 583.619 1485.25 587.729C1487.86 591.84 1491.66 593.895 1496.64 593.895C1501.62 593.895 1505.21 592.658 1507.4 590.185C1509.59 587.712 1510.95 583.271 1511.47 576.862H1521.14ZM1581.85 576.862C1581.43 585.013 1579.13 591.247 1574.95 595.566C1570.81 599.885 1564.94 602.045 1557.35 602.045C1549.72 602.045 1543.66 599.154 1539.17 593.372C1534.67 587.555 1532.43 579.684 1532.43 569.757V555.964C1532.43 546.072 1534.72 538.252 1539.32 532.505C1543.95 526.758 1550.26 523.885 1558.23 523.885C1565.58 523.885 1571.26 526.097 1575.27 530.52C1579.31 534.909 1581.5 541.196 1581.85 549.381H1572.18C1571.77 543.181 1570.46 538.757 1568.27 536.11C1566.07 533.463 1562.73 532.14 1558.23 532.14C1553.05 532.14 1549.06 534.177 1546.27 538.252C1543.48 542.293 1542.09 548.231 1542.09 556.068V570.018C1542.09 577.716 1543.38 583.619 1545.96 587.729C1548.57 591.84 1552.37 593.895 1557.35 593.895C1562.33 593.895 1565.92 592.658 1568.11 590.185C1570.3 587.712 1571.66 583.271 1572.18 576.862H1581.85ZM1631.33 565.838H1604.42V592.797H1635.77V601H1594.86V524.93H1635.25V533.185H1604.42V557.636H1631.33V565.838ZM1684.51 565.838H1657.61V592.797H1688.95V601H1648.05V524.93H1688.43V533.185H1657.61V557.636H1684.51V565.838ZM1701.23 601V524.93H1719.36C1728.24 524.93 1735.14 527.716 1740.05 533.289C1744.96 538.827 1747.42 546.629 1747.42 556.695V569.443C1747.42 579.509 1744.93 587.294 1739.95 592.797C1734.97 598.266 1727.74 601 1718.26 601H1701.23ZM1710.79 533.185V592.797H1718.47C1725.2 592.797 1730.11 590.882 1733.21 587.05C1736.31 583.184 1737.89 577.472 1737.96 569.914V556.434C1737.96 548.423 1736.41 542.554 1733.31 538.827C1730.25 535.065 1725.6 533.185 1719.36 533.185H1710.79Z" fill="black"/>
<path d="M907.98 619.809C897.461 616.395 892.08 608.576 891.836 596.35V585.065C891.836 577.785 889.45 574.146 884.678 574.146V563.278C889.45 563.278 891.836 559.586 891.836 552.202V540.812C892.115 528.726 897.496 520.976 907.98 517.563L910.801 526.027C907.318 527.699 905.42 532.035 905.106 539.036L905.054 552.098C905.054 559.935 902.285 565.455 896.747 568.66C902.285 571.899 905.054 577.489 905.054 585.431C905.054 593.372 905.089 597.917 905.159 599.067C905.542 605.615 907.405 609.69 910.749 611.292L907.98 619.809ZM1155.1 611.292C1157.05 610.387 1158.5 608.698 1159.44 606.225C1160.38 603.786 1160.85 600.216 1160.85 595.514V585.274C1160.85 577.298 1163.69 571.777 1169.37 568.712C1163.69 565.612 1160.85 560.074 1160.85 552.098C1160.85 544.121 1160.83 539.768 1160.8 539.036C1160.49 532 1158.57 527.664 1155.05 526.027L1157.87 517.563C1163.24 519.305 1167.24 522.126 1169.89 526.027C1172.57 529.928 1173.95 535.048 1174.02 541.387V552.254C1174.02 559.604 1176.42 563.278 1181.23 563.278V574.146C1176.42 574.146 1174.02 577.82 1174.02 585.169V596.507C1173.74 608.628 1168.36 616.395 1157.87 619.809L1155.1 611.292Z" fill="#39DC78"/>
<path d="M971.302 575.661C970.919 584.333 968.481 590.899 963.988 595.357C959.495 599.816 953.155 602.045 944.97 602.045C936.367 602.045 929.767 599.224 925.169 593.581C920.606 587.904 918.325 579.823 918.325 569.339V556.539C918.325 546.089 920.693 538.043 925.43 532.401C930.167 526.723 936.75 523.885 945.179 523.885C953.469 523.885 959.756 526.201 964.04 530.833C968.359 535.466 970.815 542.119 971.407 550.792H955.994C955.855 545.428 955.019 541.736 953.486 539.715C951.989 537.66 949.22 536.633 945.179 536.633C941.069 536.633 938.161 538.078 936.454 540.969C934.747 543.825 933.842 548.545 933.737 555.128V569.496C933.737 577.054 934.573 582.244 936.245 585.065C937.952 587.886 940.86 589.297 944.97 589.297C949.011 589.297 951.797 588.322 953.33 586.371C954.862 584.386 955.733 580.816 955.942 575.661H971.302ZM1034.31 569.809C1034.31 580.014 1031.89 587.938 1027.05 593.581C1022.24 599.224 1015.55 602.045 1006.99 602.045C998.453 602.045 991.748 599.258 986.872 593.686C981.995 588.078 979.522 580.241 979.453 570.175V557.166C979.453 546.716 981.873 538.566 986.715 532.714C991.556 526.828 998.279 523.885 1006.88 523.885C1015.35 523.885 1022.02 526.776 1026.89 532.558C1031.77 538.305 1034.24 546.385 1034.31 556.8V569.809ZM1018.9 557.061C1018.9 550.199 1017.92 545.097 1015.97 541.753C1014.02 538.409 1010.99 536.737 1006.88 536.737C1002.81 536.737 999.794 538.357 997.843 541.596C995.893 544.801 994.883 549.694 994.813 556.277V569.809C994.813 576.462 995.806 581.373 997.791 584.542C999.776 587.677 1002.84 589.245 1006.99 589.245C1010.99 589.245 1013.97 587.712 1015.92 584.647C1017.87 581.547 1018.86 576.758 1018.9 570.279V557.061ZM1045.33 601V524.93H1065.45C1074.33 524.93 1081.4 527.751 1086.66 533.394C1091.96 539.036 1094.66 546.769 1094.76 556.591V568.921C1094.76 578.917 1092.11 586.772 1086.82 592.484C1081.56 598.161 1074.3 601 1065.03 601H1045.33ZM1060.7 537.73V588.252H1065.29C1070.41 588.252 1074.02 586.911 1076.11 584.229C1078.2 581.512 1079.29 576.845 1079.4 570.227V557.009C1079.4 549.903 1078.41 544.957 1076.42 542.171C1074.44 539.35 1071.06 537.869 1066.29 537.73H1060.7ZM1145.12 568.085H1121.2V588.252H1149.51V601H1105.84V524.93H1149.41V537.73H1121.2V555.703H1145.12V568.085Z" fill="#0F2106"/>
</svg>
